<svg width="132" height="65" viewBox="0 0 132 65" fill="none" xmlns="http://www.w3.org/2000/svg">
<path d="M0 40.4231H3.8974V50.7115H8.5171V40.4231H12.4145V65H8.5171V53.6469H3.8974V65H0V40.4231Z" fill="white"/>
<path d="M16.673 40.4231H26.4993V43.3585H20.5705V50.7115H25.2202V53.6469H20.5705V62.0646H26.4993V65H16.673V40.4231Z" fill="white"/>
<path d="M28.8317 40.4231H33.0602C33.6521 40.4231 34.3041 40.4567 35.0164 40.5239C35.7287 40.591 36.4359 40.7445 37.1382 40.9843C37.8404 41.2145 38.4824 41.5839 39.0643 42.0923C39.6461 42.5911 40.1126 43.277 40.4637 44.15C40.8249 45.0133 41.0055 46.1117 41.0055 47.4451V48.0638C41.0055 51.7475 39.8468 54.1169 37.5294 55.1721L41.7579 65H37.6047L34.0684 55.8053H32.7291V65H28.8317V40.4231ZM33.2408 53.1145C34.6653 53.1145 35.6434 52.7979 36.1751 52.1648C36.7168 51.5317 36.9877 50.3901 36.9877 48.7401V46.7976C36.9877 45.5313 36.7319 44.6008 36.2202 44.0061C35.7187 43.4113 34.7255 43.1139 33.2408 43.1139H32.7291V53.1145H33.2408Z" fill="white"/>
<path d="M44.7223 40.4231H47.8071L54.0821 56.5823H54.1724C54.1322 56.0739 54.0771 55.5079 54.0068 54.8843C53.9466 54.2512 53.8915 53.4934 53.8413 52.6108C53.7912 51.7283 53.7661 50.6539 53.7661 49.3876V40.4231H57.2271V65H54.1122L47.8673 49.2725H47.7469C47.7971 49.8481 47.8523 50.4764 47.9124 51.1575C47.9726 51.8386 48.0278 52.6972 48.078 53.7332C48.1281 54.7692 48.1532 56.117 48.1532 57.7766V65H44.7223V40.4231Z" fill="white"/>
<path d="M64.3598 40.4231H68.7538L73.554 65H69.6416L68.9343 60.5969H64.1792L63.5021 65H59.5746L64.3598 40.4231ZM68.4829 57.791L66.6471 45.4882H66.4815L64.6306 57.791H68.4829Z" fill="white"/>
<path d="M75.9015 40.4231H78.9863L85.2613 56.5823H85.3516C85.3114 56.0739 85.2563 55.5079 85.1861 54.8843C85.1259 54.2512 85.0707 53.4934 85.0205 52.6108C84.9704 51.7283 84.9453 50.6539 84.9453 49.3876V40.4231H88.4063V65H85.2914L79.0465 49.2725H78.9261C78.9763 49.8481 79.0315 50.4764 79.0917 51.1575C79.1518 51.8386 79.207 52.6972 79.2572 53.7332C79.3073 54.7692 79.3324 56.117 79.3324 57.7766V65H75.9015V40.4231Z" fill="white"/>
<path d="M96.7127 65H92.6648V40.4231H96.7127C97.4451 40.4231 98.1974 40.4567 98.9699 40.5239C99.7424 40.591 100.485 40.7637 101.197 41.0419C101.919 41.3201 102.566 41.7709 103.138 42.3945C103.71 43.0084 104.161 43.8622 104.492 44.9558C104.834 46.0397 105.004 47.4355 105.004 49.143V56.2801C105.004 57.9876 104.834 59.3882 104.492 60.4818C104.161 61.5754 103.71 62.4339 103.138 63.0574C102.566 63.6714 101.919 64.1175 101.197 64.3957C100.485 64.6642 99.7424 64.8321 98.9699 64.8993C98.1974 64.9664 97.4451 65 96.7127 65ZM96.5622 43.2578V62.1653H97.4049C98.3479 62.1653 99.0702 62.0022 99.5718 61.6761C100.083 61.3499 100.435 60.7648 100.625 59.9206C100.826 59.0764 100.926 57.8869 100.926 56.3521V49.0711C100.926 47.5266 100.826 46.3371 100.625 45.5025C100.435 44.6584 100.083 44.0732 99.5718 43.7471C99.0702 43.4209 98.3479 43.2578 97.4049 43.2578H96.5622Z" fill="white"/>
<path d="M108.586 40.4231H118.412V43.3585H112.483V50.7115H117.133V53.6469H112.483V62.0646H118.412V65H108.586V40.4231Z" fill="white"/>
<path d="M119.856 63.0287L127.636 43.3585H121.15V40.4231H132V42.3945L124.205 62.0646H132V65H119.856V63.0287Z" fill="white"/>
<path d="M0.909322 0H6.54153C7.78835 0 9.07817 0.0753723 10.411 0.226117C11.7438 0.376862 12.9835 0.712611 14.13 1.23337C15.2765 1.74042 16.2008 2.5284 16.9031 3.59732C17.6196 4.66623 17.9779 6.11886 17.9779 7.95521V9.66136C17.9779 11.5251 17.5121 13.0463 16.5806 14.2248C15.6634 15.3897 14.6387 16.1708 13.5065 16.5682V16.7327C15.169 17.363 16.4301 18.2675 17.29 19.4461C18.1499 20.6246 18.5798 22.2554 18.5798 24.3384V26.1268C18.5798 28.0317 18.2574 29.5802 17.6125 30.7725C16.9819 31.951 16.1148 32.8555 15.0113 33.4859C13.9078 34.1163 12.6467 34.5479 11.2279 34.7809C9.80907 35.0002 8.31861 35.1098 6.7565 35.1098H0.909322V0ZM7.4444 15.0265C8.93486 15.0265 10.1244 14.677 11.0129 13.9781C11.9014 13.2655 12.3457 12.087 12.3457 10.4425V9.00357C12.3457 7.37278 11.9874 6.11201 11.2709 5.22125C10.5543 4.33048 9.27881 3.8851 7.4444 3.8851H6.47704V15.0265H7.4444ZM7.96033 31.2247C9.45078 31.2247 10.6331 30.8752 11.5073 30.1763C12.3959 29.4637 12.8401 28.2852 12.8401 26.6407V23.9067C12.8401 22.2622 12.4819 21.0015 11.7653 20.1244C11.0631 19.2336 9.79474 18.7883 7.96033 18.7883H6.47704V31.2247H7.96033Z" fill="white"/>
<path d="M23.2662 0H37.3037V4.19344H28.8339V14.6976H35.4765V18.891H28.8339V30.9164H37.3037V35.1098H23.2662V0Z" fill="white"/>
<path d="M40.6357 0H45.0426L54.0068 23.0845H54.1358C54.0785 22.3582 53.9997 21.5496 53.8994 20.6589C53.8134 19.7544 53.7345 18.6718 53.6629 17.411C53.5912 16.1502 53.5554 14.6154 53.5554 12.8064V0H58.4997V35.1098H54.0498L45.1286 12.642H44.9566C45.0283 13.4642 45.1071 14.3619 45.1931 15.3348C45.2791 16.3078 45.3579 17.5343 45.4296 19.0144C45.5012 20.4944 45.537 22.4198 45.537 24.7906V35.1098H40.6357V0Z" fill="white"/>
<path d="M64.5834 0H68.9902L77.9545 23.0845H78.0835C78.0261 22.3582 77.9473 21.5496 77.847 20.6589C77.761 19.7544 77.6822 18.6718 77.6105 17.411C77.5389 16.1502 77.503 14.6154 77.503 12.8064V0H82.4473V35.1098H77.9975L69.0762 12.642H68.9042C68.9759 13.4642 69.0547 14.3619 69.1407 15.3348C69.2267 16.3078 69.3055 17.5343 69.3772 19.0144C69.4488 20.4944 69.4847 22.4198 69.4847 24.7906V35.1098H64.5834V0Z" fill="white"/>
<path d="M92.7229 22.7967L85.5429 0H91.1536L95.41 16.9382H95.668L99.9244 0H105.514L98.2906 22.7967V35.1098H92.7229V22.7967Z" fill="white"/>
</svg>
